<svg width="176" height="176" viewBox="0 0 176 176" fill="none" xmlns="http://www.w3.org/2000/svg">
<path d="M105.58 2.80099L106.078 2.75124V2.75124L105.58 2.80099ZM105.166 1.25855L104.831 1.62927V1.62927L105.166 1.25855ZM108.653 33.5328L109.151 33.483L108.653 33.5328ZM109.451 36.212L109.26 36.674L109.26 36.674L109.451 36.212ZM111.91 34.8817L111.593 34.4947L111.91 34.8817ZM135.813 15.3243L136.13 15.7113V15.7113L135.813 15.3243ZM137.197 14.5264L137.172 15.0258L137.197 14.5264ZM138.494 15.458L138.848 15.1044V15.1044L138.494 15.458ZM160.542 37.5056L160.895 37.1521H160.895L160.542 37.5056ZM161.473 38.8028L161.973 38.7779V38.7779L161.473 38.8028ZM160.675 40.1863L161.062 40.5029V40.5029L160.675 40.1863ZM141.118 64.0903L141.505 64.4069L141.118 64.0903ZM139.787 66.549L139.325 66.7403V66.7403L139.787 66.549ZM142.467 67.3468L142.516 66.8493L142.467 67.3468ZM173.199 70.4201L173.249 69.9225L173.199 70.4201ZM174.741 70.8342L174.371 71.1696V71.1697L174.741 70.8342ZM174.741 105.166L174.371 104.831V104.831L174.741 105.166ZM173.199 105.58L173.249 106.078L173.199 105.58ZM142.47 108.653L142.52 109.151L142.47 108.653ZM139.791 109.451L139.329 109.26V109.26L139.791 109.451ZM141.121 111.91L141.508 111.593L141.121 111.91ZM160.676 135.81L161.063 135.493L160.676 135.81ZM161.474 137.194L161.973 137.218V137.218L161.474 137.194ZM160.542 138.491L160.896 138.844H160.896L160.542 138.491ZM137.197 161.47L137.172 160.971L137.197 161.47ZM135.814 160.672L135.497 161.059L135.814 160.672ZM111.91 141.115L112.227 140.728L111.91 141.115ZM109.452 139.784L109.26 139.322H109.26L109.452 139.784ZM108.654 142.464L108.156 142.414L108.654 142.464ZM105.58 173.199L106.078 173.249L105.58 173.199ZM70.4201 173.199L69.9225 173.249L70.4201 173.199ZM67.3468 142.467L66.8493 142.516L67.3468 142.467ZM66.549 139.787L66.7403 139.325H66.7403L66.549 139.787ZM64.0903 141.118L64.4069 141.505L64.0903 141.118ZM40.1859 160.676L39.8692 160.289H39.8692L40.1859 160.676ZM37.5052 160.542L37.8587 160.189L37.5052 160.542ZM15.4575 138.495L15.104 138.848H15.104L15.4575 138.495ZM14.526 137.197L15.0253 137.172L14.526 137.197ZM15.3238 135.814L15.7108 136.131L15.3238 135.814ZM34.8816 111.91L35.2686 112.227L34.8816 111.91ZM36.212 109.451L35.75 109.643L35.75 109.643L36.212 109.451ZM33.5327 108.653L33.4829 109.151L33.5327 108.653ZM2.80099 105.58L2.85075 105.083L2.82593 105.08H2.80099V105.58ZM2.80096 105.58L2.7512 106.078L2.77602 106.08H2.80096V105.58ZM1.25855 105.166L1.62928 104.831H1.62927L1.25855 105.166ZM1.25855 70.8341L1.62927 71.1696H1.62928L1.25855 70.8341ZM2.80096 70.4201V69.9201H2.77602L2.7512 69.9225L2.80096 70.4201ZM2.80099 70.4201V70.9201H2.82593L2.85075 70.9176L2.80099 70.4201ZM33.5359 67.3466L33.4862 66.849L33.5359 67.3466ZM36.2152 66.5487L35.7533 66.3574L35.7533 66.3574L36.2152 66.5487ZM34.8848 64.09L34.4978 64.4066L34.8848 64.09ZM15.3241 40.1824L14.9371 40.4991L15.3241 40.1824ZM14.5262 38.799L15.0256 38.8239L14.5262 38.799ZM38.8026 14.5225L38.7777 14.0232H38.7777L38.8026 14.5225ZM40.1861 15.3204L39.8695 15.7074V15.7074L40.1861 15.3204ZM64.0906 34.8787L63.774 35.2657L64.0906 34.8787ZM66.5493 36.2091L66.7407 36.671H66.7407L66.5493 36.2091ZM67.3472 33.5298L66.8497 33.48L67.3472 33.5298ZM70.4201 2.80099L69.9225 2.75124V2.75124L70.4201 2.80099ZM70.8341 1.25855L71.1696 1.62927V1.62927L70.8341 1.25855ZM106.078 2.75124C106.036 2.33657 106.001 1.97777 105.935 1.69281C105.866 1.39394 105.749 1.11194 105.502 0.887822L104.831 1.62927C104.869 1.6637 104.916 1.72496 104.961 1.91869C105.009 2.12633 105.039 2.40948 105.083 2.85074L106.078 2.75124ZM109.151 33.483L106.078 2.75124L105.083 2.85074L108.156 33.5825L109.151 33.483ZM109.643 35.7501C109.591 35.7289 109.49 35.669 109.391 35.2771C109.292 34.8846 109.234 34.3167 109.151 33.483L108.156 33.5825C108.236 34.3824 108.3 35.0396 108.421 35.5211C108.543 36.0033 108.758 36.4662 109.26 36.674L109.643 35.7501ZM111.593 34.4947C110.945 35.0252 110.502 35.3857 110.155 35.5934C109.808 35.8008 109.694 35.7713 109.643 35.7501L109.26 36.674C109.761 36.8817 110.241 36.7069 110.668 36.4517C111.094 36.1969 111.604 35.7777 112.227 35.2686L111.593 34.4947ZM135.497 14.9373L111.593 34.4947L112.227 35.2686L136.13 15.7113L135.497 14.9373ZM137.222 14.027C136.888 14.0104 136.606 14.1273 136.346 14.2896C136.098 14.4444 135.819 14.6734 135.497 14.9373L136.13 15.7113C136.473 15.4304 136.694 15.2509 136.875 15.1382C137.044 15.0329 137.121 15.0232 137.172 15.0258L137.222 14.027ZM138.848 15.1044C138.553 14.8098 138.299 14.5542 138.067 14.3755C137.824 14.188 137.555 14.0437 137.222 14.027L137.172 15.0258C137.223 15.0283 137.299 15.0456 137.456 15.1671C137.625 15.2974 137.827 15.498 138.141 15.8115L138.848 15.1044ZM160.895 37.1521L138.848 15.1044L138.141 15.8115L160.188 37.8592L160.895 37.1521ZM161.973 38.7779C161.956 38.4443 161.812 38.1754 161.624 37.9325C161.446 37.701 161.19 37.4467 160.895 37.1521L160.188 37.8592C160.502 38.1727 160.702 38.3747 160.833 38.5435C160.954 38.7009 160.971 38.7765 160.974 38.8277L161.973 38.7779ZM161.062 40.5029C161.326 40.1804 161.555 39.902 161.71 39.6538C161.872 39.3934 161.989 39.1115 161.973 38.7779L160.974 38.8277C160.977 38.879 160.967 38.9559 160.862 39.1247C160.749 39.3055 160.569 39.5265 160.288 39.8697L161.062 40.5029ZM141.505 64.4069L161.062 40.5029L160.288 39.8697L140.731 63.7737L141.505 64.4069ZM140.249 66.3576C140.228 66.3064 140.199 66.1922 140.406 65.8454C140.614 65.498 140.974 65.0553 141.505 64.4069L140.731 63.7737C140.222 64.3958 139.802 64.9061 139.548 65.3322C139.292 65.7589 139.118 66.2388 139.325 66.7403L140.249 66.3576ZM142.516 66.8493C141.683 66.7659 141.115 66.7078 140.722 66.6091C140.33 66.5105 140.27 66.4089 140.249 66.3576L139.325 66.7403C139.533 67.2419 139.996 67.4575 140.478 67.5788C140.96 67.7 141.617 67.7644 142.417 67.8443L142.516 66.8493ZM173.249 69.9225L142.516 66.8493L142.417 67.8443L173.149 70.9176L173.249 69.9225ZM175.112 70.4987C174.888 70.251 174.606 70.1343 174.307 70.065C174.022 69.9989 173.663 69.964 173.249 69.9225L173.149 70.9176C173.591 70.9617 173.874 70.991 174.081 71.0391C174.275 71.0841 174.336 71.1316 174.371 71.1696L175.112 70.4987ZM175.5 72.4101C175.5 71.9934 175.501 71.6329 175.464 71.3428C175.424 71.0385 175.336 70.7463 175.112 70.4986L174.371 71.1697C174.405 71.2077 174.446 71.2734 174.472 71.4706C174.499 71.682 174.5 71.9667 174.5 72.4101H175.5ZM175.5 103.59V72.4101H174.5V103.59H175.5ZM175.112 105.502C175.336 105.254 175.424 104.962 175.464 104.658C175.501 104.367 175.5 104.007 175.5 103.59H174.5C174.5 104.034 174.499 104.318 174.472 104.53C174.446 104.727 174.405 104.793 174.371 104.831L175.112 105.502ZM173.249 106.078C173.663 106.036 174.022 106.001 174.307 105.935C174.606 105.866 174.888 105.749 175.112 105.502L174.371 104.831C174.336 104.869 174.275 104.916 174.081 104.961C173.874 105.009 173.591 105.039 173.149 105.083L173.249 106.078ZM142.52 109.151L173.249 106.078L173.149 105.083L142.42 108.156L142.52 109.151ZM140.252 109.642C140.274 109.591 140.334 109.49 140.725 109.391C141.118 109.292 141.686 109.234 142.52 109.151L142.42 108.156C141.62 108.236 140.963 108.3 140.481 108.421C139.999 108.542 139.536 108.758 139.329 109.26L140.252 109.642ZM141.508 111.593C140.977 110.945 140.617 110.502 140.409 110.155C140.202 109.808 140.231 109.694 140.252 109.642L139.329 109.26C139.121 109.761 139.296 110.241 139.551 110.668C139.806 111.094 140.225 111.604 140.734 112.226L141.508 111.593ZM161.063 135.493L141.508 111.593L140.734 112.226L160.289 136.127L161.063 135.493ZM161.973 137.218C161.99 136.885 161.873 136.603 161.71 136.343C161.556 136.094 161.327 135.816 161.063 135.493L160.289 136.127C160.57 136.47 160.749 136.691 160.862 136.872C160.967 137.04 160.977 137.117 160.974 137.169L161.973 137.218ZM160.896 138.844C161.19 138.55 161.446 138.295 161.625 138.064C161.812 137.821 161.956 137.552 161.973 137.218L160.974 137.169C160.972 137.22 160.954 137.295 160.833 137.453C160.703 137.622 160.502 137.824 160.189 138.137L160.896 138.844ZM160.896 138.844L160.896 138.844L160.189 138.137L160.188 138.137L160.896 138.844ZM138.848 160.892L160.896 138.844L160.188 138.137L138.141 160.185L138.848 160.892ZM137.222 161.969C137.556 161.953 137.825 161.808 138.067 161.621C138.299 161.442 138.553 161.187 138.848 160.892L138.141 160.185C137.827 160.498 137.625 160.699 137.457 160.829C137.299 160.951 137.224 160.968 137.172 160.971L137.222 161.969ZM135.497 161.059C135.82 161.323 136.098 161.552 136.346 161.707C136.607 161.869 136.888 161.986 137.222 161.969L137.172 160.971C137.121 160.973 137.044 160.963 136.875 160.858C136.694 160.745 136.474 160.566 136.13 160.285L135.497 161.059ZM111.594 141.502L135.497 161.059L136.13 160.285L112.227 140.728L111.594 141.502ZM109.643 140.246C109.694 140.225 109.808 140.196 110.155 140.403C110.503 140.611 110.945 140.971 111.594 141.502L112.227 140.728C111.605 140.219 111.095 139.8 110.668 139.545C110.242 139.29 109.762 139.115 109.26 139.322L109.643 140.246ZM109.151 142.513C109.235 141.68 109.293 141.112 109.392 140.719C109.49 140.327 109.592 140.268 109.643 140.246L109.26 139.322C108.759 139.53 108.543 139.993 108.422 140.475C108.301 140.957 108.236 141.614 108.156 142.414L109.151 142.513ZM106.078 173.249L109.151 142.513L108.156 142.414L105.083 173.149L106.078 173.249ZM105.502 175.112C105.749 174.888 105.866 174.606 105.935 174.307C106.001 174.022 106.036 173.663 106.078 173.249L105.083 173.149C105.039 173.591 105.009 173.874 104.961 174.081C104.916 174.275 104.869 174.336 104.831 174.371L105.502 175.112ZM103.59 175.5C104.007 175.5 104.367 175.501 104.658 175.464C104.962 175.424 105.254 175.336 105.502 175.112L104.831 174.371C104.793 174.405 104.727 174.446 104.53 174.472C104.318 174.499 104.034 174.5 103.59 174.5V175.5ZM72.4101 175.5H103.59V174.5H72.4101V175.5ZM70.4986 175.112C70.7463 175.336 71.0385 175.424 71.3428 175.464C71.6329 175.501 71.9934 175.5 72.4101 175.5V174.5C71.9667 174.5 71.682 174.499 71.4706 174.472C71.2734 174.446 71.2077 174.405 71.1696 174.371L70.4986 175.112ZM69.9225 173.249C69.964 173.663 69.9989 174.022 70.065 174.307C70.1343 174.606 70.251 174.888 70.4986 175.112L71.1696 174.371C71.1316 174.336 71.0841 174.275 71.0391 174.081C70.991 173.874 70.9617 173.591 70.9176 173.149L69.9225 173.249ZM66.8493 142.516L69.9225 173.249L70.9176 173.149L67.8443 142.417L66.8493 142.516ZM66.3576 140.249C66.4089 140.271 66.5105 140.33 66.6091 140.722C66.7078 141.115 66.7659 141.683 66.8493 142.516L67.8443 142.417C67.7644 141.617 67.7 140.96 67.5788 140.478C67.4575 139.996 67.2419 139.533 66.7403 139.325L66.3576 140.249ZM64.4069 141.505C65.0553 140.974 65.498 140.614 65.8454 140.406C66.1922 140.199 66.3064 140.228 66.3576 140.249L66.7403 139.325C66.2388 139.118 65.7589 139.293 65.3322 139.548C64.9061 139.803 64.3958 140.222 63.7737 140.731L64.4069 141.505ZM40.5025 161.063L64.4069 141.505L63.7737 140.731L39.8692 160.289L40.5025 161.063ZM38.7775 161.973C39.1111 161.99 39.393 161.873 39.6533 161.711C39.9015 161.556 40.1799 161.327 40.5025 161.063L39.8692 160.289C39.526 160.57 39.3051 160.749 39.1242 160.862C38.9555 160.967 38.8785 160.977 38.8273 160.974L38.7775 161.973ZM37.1516 160.896C37.4463 161.19 37.7005 161.446 37.9321 161.625C38.175 161.812 38.4439 161.957 38.7775 161.973L38.8273 160.974C38.776 160.972 38.7005 160.955 38.543 160.833C38.3743 160.703 38.1723 160.502 37.8587 160.189L37.1516 160.896ZM15.104 138.848L37.1516 160.896L37.8587 160.189L15.8111 138.141L15.104 138.848ZM14.0266 137.222C14.0432 137.556 14.1876 137.825 14.375 138.068C14.5537 138.299 14.8093 138.553 15.104 138.848L15.8111 138.141C15.4975 137.827 15.2969 137.625 15.1667 137.457C15.0452 137.299 15.0279 137.224 15.0253 137.172L14.0266 137.222ZM14.9369 135.497C14.673 135.82 14.4439 136.098 14.2892 136.346C14.1268 136.607 14.0099 136.889 14.0266 137.222L15.0253 137.172C15.0228 137.121 15.0325 137.044 15.1377 136.876C15.2505 136.695 15.43 136.474 15.7108 136.131L14.9369 135.497ZM34.4946 111.593L14.9369 135.497L15.7108 136.131L35.2686 112.227L34.4946 111.593ZM35.75 109.643C35.7713 109.694 35.8007 109.808 35.5934 110.155C35.3856 110.502 35.0252 110.945 34.4946 111.593L35.2686 112.227C35.7776 111.604 36.1968 111.094 36.4516 110.668C36.7068 110.241 36.8817 109.761 36.6739 109.26L35.75 109.643ZM33.4829 109.151C34.3166 109.234 34.8845 109.292 35.2771 109.391C35.6689 109.49 35.7288 109.591 35.75 109.643L36.6739 109.26C36.4662 108.758 36.0032 108.543 35.521 108.421C35.0396 108.3 34.3823 108.236 33.5824 108.156L33.4829 109.151ZM2.75124 106.078L33.4829 109.151L33.5824 108.156L2.85075 105.083L2.75124 106.078ZM2.80096 106.08H2.80099V105.08H2.80096V106.08ZM0.887819 105.502C1.11193 105.749 1.39393 105.866 1.6928 105.935C1.97776 106.001 2.33655 106.036 2.7512 106.078L2.85071 105.083C2.40946 105.039 2.12632 105.009 1.91868 104.961C1.72495 104.916 1.66371 104.869 1.62928 104.831L0.887819 105.502ZM0.5 103.59C0.5 104.007 0.499029 104.367 0.53642 104.658C0.575636 104.962 0.663704 105.254 0.887822 105.502L1.62927 104.831C1.59484 104.793 1.55364 104.727 1.52822 104.53C1.50097 104.318 1.5 104.034 1.5 103.59H0.5ZM0.5 72.4101V103.59H1.5V72.4101H0.5ZM0.887824 70.4986C0.663705 70.7463 0.575636 71.0385 0.53642 71.3428C0.499029 71.6329 0.5 71.9934 0.5 72.4101H1.5C1.5 71.9667 1.50097 71.682 1.52822 71.4706C1.55364 71.2734 1.59484 71.2077 1.62927 71.1696L0.887824 70.4986ZM2.7512 69.9225C2.33655 69.964 1.97776 69.9989 1.6928 70.065C1.39394 70.1343 1.11193 70.251 0.887821 70.4986L1.62928 71.1696C1.66371 71.1316 1.72496 71.0841 1.91868 71.0391C2.12632 70.991 2.40946 70.9617 2.85071 70.9176L2.7512 69.9225ZM2.80099 69.9201H2.80096V70.9201H2.80099V69.9201ZM33.4862 66.849L2.75124 69.9225L2.85075 70.9176L33.5857 67.8441L33.4862 66.849ZM35.7533 66.3574C35.732 66.4086 35.6721 66.5102 35.2803 66.6088C34.8877 66.7076 34.3198 66.7657 33.4862 66.849L33.5857 67.8441C34.3855 67.7641 35.0428 67.6997 35.5243 67.5786C36.0064 67.4573 36.4694 67.2416 36.6771 66.7401L35.7533 66.3574ZM34.4978 64.4066C35.0284 65.0551 35.3889 65.4977 35.5966 65.8451C35.804 66.1919 35.7745 66.3061 35.7533 66.3574L36.6771 66.7401C36.8849 66.2385 36.71 65.7587 36.4549 65.3319C36.2001 64.9058 35.7808 64.3955 35.2718 63.7734L34.4978 64.4066ZM14.9371 40.4991L34.4978 64.4066L35.2718 63.7734L15.7111 39.8658L14.9371 40.4991ZM14.0268 38.7741C14.0102 39.1076 14.1271 39.3896 14.2894 39.6499C14.4442 39.8981 14.6732 40.1765 14.9371 40.4991L15.7111 39.8658C15.4302 39.5226 15.2507 39.3017 15.1379 39.1208C15.0327 38.952 15.023 38.8751 15.0256 38.8239L14.0268 38.7741ZM15.1042 37.1482C14.8095 37.4429 14.554 37.6971 14.3752 37.9287C14.1878 38.1716 14.0435 38.4405 14.0268 38.7741L15.0256 38.8239C15.0281 38.7726 15.0454 38.697 15.1669 38.5396C15.2972 38.3708 15.4978 38.1689 15.8113 37.8553L15.1042 37.1482ZM37.1518 15.1006L15.1042 37.1482L15.8113 37.8553L37.859 15.8077L37.1518 15.1006ZM38.7777 14.0232C38.4441 14.0398 38.1752 14.1842 37.9323 14.3716C37.7007 14.5503 37.4465 14.8059 37.1518 15.1006L37.859 15.8077C38.1725 15.4941 38.3745 15.2935 38.5433 15.1633C38.7007 15.0418 38.7763 15.0245 38.8275 15.0219L38.7777 14.0232ZM40.5027 14.9334C40.1802 14.6696 39.9018 14.4405 39.6536 14.2857C39.3932 14.1234 39.1113 14.0065 38.7777 14.0232L38.8275 15.0219C38.8788 15.0194 38.9557 15.0291 39.1245 15.1343C39.3053 15.2471 39.5262 15.4266 39.8695 15.7074L40.5027 14.9334ZM64.4073 34.4917L40.5027 14.9334L39.8695 15.7074L63.774 35.2657L64.4073 34.4917ZM66.358 35.7471C66.3067 35.7684 66.1925 35.7978 65.8458 35.5905C65.4984 35.3827 65.0557 35.0223 64.4073 34.4917L63.774 35.2657C64.3962 35.7747 64.9064 36.1939 65.3325 36.4487C65.7593 36.7039 66.2391 36.8788 66.7407 36.671L66.358 35.7471ZM66.8497 33.48C66.7663 34.3137 66.7082 34.8816 66.6094 35.2741C66.5108 35.666 66.4093 35.7259 66.358 35.7471L66.7407 36.671C67.2422 36.4633 67.4579 36.0003 67.5792 35.5181C67.7003 35.0367 67.7647 34.3794 67.8447 33.5795L66.8497 33.48ZM69.9225 2.75124L66.8497 33.48L67.8447 33.5795L70.9176 2.85074L69.9225 2.75124ZM70.4986 0.887822C70.251 1.11194 70.1343 1.39395 70.065 1.69281C69.9989 1.97777 69.964 2.33657 69.9225 2.75124L70.9176 2.85074C70.9617 2.40947 70.991 2.12633 71.0391 1.91869C71.0841 1.72495 71.1316 1.6637 71.1696 1.62927L70.4986 0.887822ZM72.4101 0.5C71.9934 0.5 71.6329 0.499029 71.3428 0.53642C71.0385 0.575636 70.7463 0.663704 70.4986 0.887823L71.1696 1.62927C71.2077 1.59484 71.2734 1.55364 71.4706 1.52822C71.682 1.50097 71.9667 1.5 72.4101 1.5V0.5ZM103.59 0.5H72.4101V1.5H103.59V0.5ZM105.502 0.887823C105.254 0.663704 104.962 0.575636 104.658 0.53642C104.367 0.499029 104.007 0.5 103.59 0.5V1.5C104.034 1.5 104.318 1.50097 104.53 1.52822C104.727 1.55364 104.793 1.59484 104.831 1.62927L105.502 0.887823ZM122.5 88C122.5 106.771 107.061 122 88 122V123C107.599 123 123.5 107.337 123.5 88H122.5ZM88 54C107.061 54 122.5 69.2291 122.5 88H123.5C123.5 68.6633 107.599 53 88 53V54ZM53.5 88C53.5 69.2291 68.9394 54 88 54V53C68.4007 53 52.5 68.6633 52.5 88H53.5ZM88 122C68.9394 122 53.5 106.771 53.5 88H52.5C52.5 107.337 68.4007 123 88 123V122Z" fill="#0066EA"/>
</svg>
