<svg width="12" height="18" viewBox="0 0 12 18" fill="none" xmlns="http://www.w3.org/2000/svg">
<path d="M10.3292 7.36475V9.20591C10.3292 10.3453 9.89179 11.438 9.11317 12.2437C8.33456 13.0494 7.27853 13.502 6.1774 13.502C5.07627 13.502 4.02024 13.0494 3.24162 12.2437C2.46301 11.438 2.02559 10.3453 2.02559 9.20591V7.36475H0.839355V9.20591C0.839979 10.5641 1.3242 11.8745 2.1995 12.8866C3.0748 13.8987 4.27981 14.5417 5.58428 14.6926V15.9569H3.21182V17.1843H9.14298V15.9569H6.77051V14.6926C8.07499 14.5417 9.27999 13.8987 10.1553 12.8866C11.0306 11.8745 11.5148 10.5641 11.5154 9.20591V7.36475H10.3292Z" fill="white"/>
<path d="M6.17725 12.2745C6.96377 12.2745 7.71808 11.9512 8.27423 11.3757C8.83038 10.8002 9.14283 10.0197 9.14283 9.20584V3.06861C9.14283 2.25477 8.83038 1.47425 8.27423 0.898776C7.71808 0.323299 6.96377 0 6.17725 0C5.39073 0 4.63642 0.323299 4.08027 0.898776C3.52411 1.47425 3.21167 2.25477 3.21167 3.06861V9.20584C3.21167 10.0197 3.52411 10.8002 4.08027 11.3757C4.63642 11.9512 5.39073 12.2745 6.17725 12.2745Z" fill="white"/>
</svg>
