<svg xmlns="http://www.w3.org/2000/svg" fill="none" viewBox="0 0 24 24">
  <path stroke="#666" stroke-width="1.2" d="M3.5 6.7c0-1.12 0-1.68.218-2.108a2 2 0 01.874-.874C5.02 3.5 5.58 3.5 6.7 3.5h10.6c1.12 0 1.68 0 2.108.218a2 2 0 01.874.874c.218.428.218.988.218 2.108v10.6c0 1.12 0 1.68-.218 2.108a2 2 0 01-.874.874c-.428.218-.988.218-2.108.218H6.7c-1.12 0-1.68 0-2.108-.218a2 2 0 01-.874-.874C3.5 18.98 3.5 18.42 3.5 17.3V6.7z"/>
  <circle cx="8.5" cy="11.5" r="2" stroke="#666"/>
  <path stroke="#666" stroke-linecap="round" d="M10.5 11.5h5m2 2v-1.85a.15.15 0 00-.15-.15H15.5m0 0v2"/>
</svg>
