<svg xmlns="http://www.w3.org/2000/svg" fill="none" viewBox="0 0 18 18">
  <path fill="#0066EA" fill-rule="evenodd" d="M14.204 7.796L16 6c.545-.545.818-.818.964-1.112a2 2 0 000-1.776C16.818 2.818 16.545 2.545 16 2c-.545-.545-.818-.818-1.112-.963a2 2 0 00-1.776 0c-.294.145-.567.418-1.112.963l-1.819 1.82a10.9 10.9 0 004.023 3.977zM8.727 5.273l-6.87 6.87c-.426.426-.638.638-.778.9-.14.26-.199.555-.317 1.145l-.615 3.077c-.066.332-.1.499-.005.593.095.095.26.062.593-.005l3.077-.615c.59-.118.885-.177 1.146-.317.26-.14.473-.352.898-.777l6.89-6.89a12.902 12.902 0 01-4.02-3.98z" clip-rule="evenodd"/>
</svg>
