<svg xmlns="http://www.w3.org/2000/svg" fill="none" viewBox="0 0 96 95">
  <rect width="64" height="64" x="16" y="15" fill="#D9D9D9" rx="12"/>
  <rect width="64" height="64" x="16" y="15" fill="url(#paint0_linear_2_2253)" rx="12"/>
  <g filter="url(#filter0_iii_2_2253)">
    <rect width="64" height="64" x="16" y="15" fill="url(#paint1_linear_2_2253)" rx="12"/>
  </g>
  <g style="mix-blend-mode:overlay" filter="url(#filter1_if_2_2253)" opacity=".8">
    <rect width="64" height="63" x="16" y="16" fill="url(#paint2_linear_2_2253)" rx="12"/>
  </g>
  <g fill="#C4C4C4" filter="url(#filter2_d_2_2253)">
    <path d="M35.006 58.63a15.263 15.263 0 008.21 6.597l.508-1.51a13.67 13.67 0 01-4.484-23.38c2.473-2.098 3.107-2.825 6.35-2.822L47 35.477c-3.622-.003-6.03 1.303-8.791 3.646a15.263 15.263 0 00-3.203 19.508zM63.15 48.314a15.263 15.263 0 00-5.172-9.174l-1.033 1.213a13.67 13.67 0 01-4.523 23.371l.506 1.511a15.263 15.263 0 0010.221-16.921z"/>
  </g>
  <g style="mix-blend-mode:multiply" filter="url(#filter3_f_2_2253)" opacity=".5">
    <path fill="#140FF0" d="M27.08 52.048l1.639 2.922a20.238 20.238 0 0015.33 10.203l-3.508-4.85a19.005 19.005 0 01-.252-21.92l8.501-12.341-7.506.79-2.048.31A16.838 16.838 0 0027.08 52.049z"/>
  </g>
  <g style="mix-blend-mode:multiply" filter="url(#filter4_f_2_2253)" opacity=".5">
    <path fill="#140FF0" d="M69.71 52.048l-1.639 2.922a20.238 20.238 0 01-15.33 10.203l3.508-4.85a19.005 19.005 0 00.252-21.92L48 26.062l7.506.79 2.048.31A16.838 16.838 0 0169.71 52.049z"/>
  </g>
  <g style="mix-blend-mode:soft-light" filter="url(#filter5_if_2_2253)">
    <path fill="#1072F1" d="M44.522 64.132a1.31 1.31 0 01-.662 0h.662c.586-.154 1.028-.709 1.028-1.377V51.686h-2.004a2.647 2.647 0 110-5.291h2.004V42.36c0-4.588 2.736-7.122 6.92-7.122.706 0 1.422.044 2.055.101 1.187.108 2.047 1.127 2.047 2.318v.135a2.31 2.31 0 01-2.31 2.309c-2.277 0-2.986 1.41-2.986 2.859v3.434h1.996a2.646 2.646 0 110 5.291h-1.996v11.069c0 .668.442 1.223 1.028 1.377h.662a1.31 1.31 0 01-.662 0h-7.782z"/>
  </g>
  <g style="mix-blend-mode:soft-light" filter="url(#filter6_if_2_2253)" opacity=".7">
    <path fill="#1072F1" d="M45.38 63.622a1.311 1.311 0 01-.662 0h.662c.585-.154 1.028-.708 1.028-1.377V51.176h-2.004a2.647 2.647 0 110-5.291h2.004V41.85c0-4.588 2.735-7.122 6.92-7.122.705 0 1.422.044 2.055.102 1.187.107 2.046 1.126 2.046 2.317v.135a2.31 2.31 0 01-2.31 2.309c-2.276 0-2.986 1.41-2.986 2.859v3.434h1.996a2.647 2.647 0 110 5.291h-1.996v11.069c0 .669.443 1.223 1.028 1.377h.662c-.23.058-.454.054-.662 0H45.38z"/>
  </g>
  <g style="mix-blend-mode:soft-light" filter="url(#filter7_if_2_2253)">
    <path fill="#1072F1" d="M46.074 62.581a1.312 1.312 0 01-.662 0h.662c.585-.154 1.028-.708 1.028-1.377V50.136h-2.004a2.647 2.647 0 110-5.292h2.004v-4.033c0-4.588 2.735-7.123 6.92-7.123.705 0 1.422.044 2.055.102 1.186.108 2.046 1.127 2.046 2.318v.135a2.31 2.31 0 01-2.31 2.308c-2.276 0-2.986 1.411-2.986 2.859v3.434h1.996a2.647 2.647 0 110 5.292h-1.996v11.068c0 .669.443 1.223 1.028 1.377h.662c-.23.059-.455.054-.662 0h-7.781z"/>
  </g>
  <g filter="url(#filter8_f_2_2253)">
    <path fill="#004EB1" d="M68.206 46.837c0-10.92-8.852-19.773-19.772-19.773-10.92 0-19.773 8.853-19.773 19.773 0 6.538 3.174 12.335 8.064 15.934 2.796 2.058 4.194 3.086 6.407 1.967 2.212-1.118 2.212-3.345 2.212-7.798v-4.388h-2.162a2.858 2.858 0 110-5.715h2.162V42.48c0-4.955 2.952-7.692 7.468-7.692.762 0 1.535.048 2.218.11 1.28.116 2.209 1.217 2.209 2.503v.146a2.493 2.493 0 01-2.494 2.493c-2.456 0-3.222 1.524-3.222 3.088v3.709h2.154a2.858 2.858 0 110 5.715h-2.154v4.388c0 4.453 0 6.68 2.213 7.798 2.213 1.12 3.61.09 6.406-1.967 4.89-3.6 8.064-9.396 8.064-15.934z"/>
  </g>
  <g filter="url(#filter9_ddiiii_2_2253)">
    <path fill="#fff" d="M68.206 46.09c0-10.92-8.852-19.773-19.772-19.773-10.92 0-19.773 8.852-19.773 19.772 0 6.538 3.174 12.335 8.064 15.935 2.796 2.057 4.194 3.086 6.407 1.967 2.212-1.119 2.212-3.345 2.212-7.798v-4.388h-2.162a2.858 2.858 0 110-5.716h2.162v-4.356c0-4.955 2.952-7.692 7.468-7.692.762 0 1.535.047 2.218.11 1.28.116 2.209 1.216 2.209 2.503v.145a2.493 2.493 0 01-2.494 2.494c-2.456 0-3.222 1.524-3.222 3.087v3.71h2.154a2.858 2.858 0 110 5.715h-2.154v4.388c0 4.453 0 6.68 2.213 7.798 2.213 1.12 3.61.09 6.406-1.967 4.89-3.6 8.064-9.397 8.064-15.935z"/>
  </g>
  <defs>
    <filter id="filter0_iii_2_2253" width="68.39" height="71.68" x="16" y="13.24" color-interpolation-filters="sRGB" filterUnits="userSpaceOnUse">
      <feFlood flood-opacity="0" result="BackgroundImageFix"/>
      <feBlend in="SourceGraphic" in2="BackgroundImageFix" result="shape"/>
      <feColorMatrix in="SourceAlpha" result="hardAlpha" values="0 0 0 0 0 0 0 0 0 0 0 0 0 0 0 0 0 0 127 0"/>
      <feOffset dy="-1.76"/>
      <feGaussianBlur stdDeviation="5.16"/>
      <feComposite in2="hardAlpha" k2="-1" k3="1" operator="arithmetic"/>
      <feColorMatrix values="0 0 0 0 0.0765104 0 0 0 0 0.0588542 0 0 0 0 0.941667 0 0 0 1 0"/>
      <feBlend in2="shape" result="effect1_innerShadow_2_2253"/>
      <feColorMatrix in="SourceAlpha" result="hardAlpha" values="0 0 0 0 0 0 0 0 0 0 0 0 0 0 0 0 0 0 127 0"/>
      <feOffset dy=".44"/>
      <feGaussianBlur stdDeviation=".22"/>
      <feComposite in2="hardAlpha" k2="-1" k3="1" operator="arithmetic"/>
      <feColorMatrix values="0 0 0 0 0 0 0 0 0 0 0 0 0 0 0 0 0 0 0.25 0"/>
      <feBlend in2="effect1_innerShadow_2_2253" result="effect2_innerShadow_2_2253"/>
      <feColorMatrix in="SourceAlpha" result="hardAlpha" values="0 0 0 0 0 0 0 0 0 0 0 0 0 0 0 0 0 0 127 0"/>
      <feOffset dx="4.39" dy="6.91"/>
      <feGaussianBlur stdDeviation="2.96"/>
      <feComposite in2="hardAlpha" k2="-1" k3="1" operator="arithmetic"/>
      <feColorMatrix values="0 0 0 0 0.170833 0 0 0 0 0.533594 0 0 0 0 1 0 0 0 1 0"/>
      <feBlend in2="effect2_innerShadow_2_2253" result="effect3_innerShadow_2_2253"/>
    </filter>
    <filter id="filter1_if_2_2253" width="95.61" height="94.61" x=".2" y=".2" color-interpolation-filters="sRGB" filterUnits="userSpaceOnUse">
      <feFlood flood-opacity="0" result="BackgroundImageFix"/>
      <feBlend in="SourceGraphic" in2="BackgroundImageFix" result="shape"/>
      <feColorMatrix in="SourceAlpha" result="hardAlpha" values="0 0 0 0 0 0 0 0 0 0 0 0 0 0 0 0 0 0 127 0"/>
      <feOffset dx="7.68" dy="9.22"/>
      <feGaussianBlur stdDeviation="9"/>
      <feComposite in2="hardAlpha" k2="-1" k3="1" operator="arithmetic"/>
      <feColorMatrix values="0 0 0 0 1 0 0 0 0 1 0 0 0 0 1 0 0 0 1 0"/>
      <feBlend in2="shape" result="effect1_innerShadow_2_2253"/>
      <feGaussianBlur result="effect2_foregroundBlur_2_2253" stdDeviation="7.9"/>
    </filter>
    <filter id="filter2_d_2_2253" width="53.36" height="52.59" x="21.41" y="24.5" color-interpolation-filters="sRGB" filterUnits="userSpaceOnUse">
      <feFlood flood-opacity="0" result="BackgroundImageFix"/>
      <feColorMatrix in="SourceAlpha" result="hardAlpha" values="0 0 0 0 0 0 0 0 0 0 0 0 0 0 0 0 0 0 127 0"/>
      <feOffset dy=".44"/>
      <feGaussianBlur stdDeviation="5.71"/>
      <feColorMatrix values="0 0 0 0 0 0 0 0 0 0 0 0 0 0 0 0 0 0 1 0"/>
      <feBlend in2="BackgroundImageFix" result="effect1_dropShadow_2_2253"/>
      <feBlend in="SourceGraphic" in2="effect1_dropShadow_2_2253" result="shape"/>
    </filter>
    <filter id="filter3_f_2_2253" width="51.86" height="67.11" x="10.93" y="12.06" color-interpolation-filters="sRGB" filterUnits="userSpaceOnUse">
      <feFlood flood-opacity="0" result="BackgroundImageFix"/>
      <feBlend in="SourceGraphic" in2="BackgroundImageFix" result="shape"/>
      <feGaussianBlur result="effect1_foregroundBlur_2_2253" stdDeviation="7"/>
    </filter>
    <filter id="filter4_f_2_2253" width="51.86" height="67.11" x="34" y="12.06" color-interpolation-filters="sRGB" filterUnits="userSpaceOnUse">
      <feFlood flood-opacity="0" result="BackgroundImageFix"/>
      <feBlend in="SourceGraphic" in2="BackgroundImageFix" result="shape"/>
      <feGaussianBlur result="effect1_foregroundBlur_2_2253" stdDeviation="7"/>
    </filter>
    <filter id="filter5_if_2_2253" width="29.1" height="42.36" x="34.18" y="28.52" color-interpolation-filters="sRGB" filterUnits="userSpaceOnUse">
      <feFlood flood-opacity="0" result="BackgroundImageFix"/>
      <feBlend in="SourceGraphic" in2="BackgroundImageFix" result="shape"/>
      <feColorMatrix in="SourceAlpha" result="hardAlpha" values="0 0 0 0 0 0 0 0 0 0 0 0 0 0 0 0 0 0 127 0"/>
      <feOffset dx="3.05"/>
      <feComposite in2="hardAlpha" k2="-1" k3="1" operator="arithmetic"/>
      <feColorMatrix values="0 0 0 0 1 0 0 0 0 1 0 0 0 0 1 0 0 0 0.75 0"/>
      <feBlend in2="shape" result="effect1_innerShadow_2_2253"/>
      <feGaussianBlur result="effect2_foregroundBlur_2_2253" stdDeviation="3.36"/>
    </filter>
    <filter id="filter6_if_2_2253" width="23.67" height="36.94" x="37.76" y="30.73" color-interpolation-filters="sRGB" filterUnits="userSpaceOnUse">
      <feFlood flood-opacity="0" result="BackgroundImageFix"/>
      <feBlend in="SourceGraphic" in2="BackgroundImageFix" result="shape"/>
      <feColorMatrix in="SourceAlpha" result="hardAlpha" values="0 0 0 0 0 0 0 0 0 0 0 0 0 0 0 0 0 0 127 0"/>
      <feOffset dx="3.05"/>
      <feComposite in2="hardAlpha" k2="-1" k3="1" operator="arithmetic"/>
      <feColorMatrix values="0 0 0 0 1 0 0 0 0 1 0 0 0 0 1 0 0 0 0.75 0"/>
      <feBlend in2="shape" result="effect1_innerShadow_2_2253"/>
      <feGaussianBlur result="effect2_foregroundBlur_2_2253" stdDeviation="2"/>
    </filter>
    <filter id="filter7_if_2_2253" width="29.1" height="42.36" x="35.74" y="26.97" color-interpolation-filters="sRGB" filterUnits="userSpaceOnUse">
      <feFlood flood-opacity="0" result="BackgroundImageFix"/>
      <feBlend in="SourceGraphic" in2="BackgroundImageFix" result="shape"/>
      <feColorMatrix in="SourceAlpha" result="hardAlpha" values="0 0 0 0 0 0 0 0 0 0 0 0 0 0 0 0 0 0 127 0"/>
      <feOffset dx="3.05"/>
      <feComposite in2="hardAlpha" k2="-1" k3="1" operator="arithmetic"/>
      <feColorMatrix values="0 0 0 0 1 0 0 0 0 1 0 0 0 0 1 0 0 0 0.75 0"/>
      <feBlend in2="shape" result="effect1_innerShadow_2_2253"/>
      <feGaussianBlur result="effect2_foregroundBlur_2_2253" stdDeviation="3.36"/>
    </filter>
    <filter id="filter8_f_2_2253" width="47.17" height="45.76" x="24.85" y="23.25" color-interpolation-filters="sRGB" filterUnits="userSpaceOnUse">
      <feFlood flood-opacity="0" result="BackgroundImageFix"/>
      <feBlend in="SourceGraphic" in2="BackgroundImageFix" result="shape"/>
      <feGaussianBlur result="effect1_foregroundBlur_2_2253" stdDeviation="1.91"/>
    </filter>
    <filter id="filter9_ddiiii_2_2253" width="59.08" height="57.66" x="18.9" y="12.58" color-interpolation-filters="sRGB" filterUnits="userSpaceOnUse">
      <feFlood flood-opacity="0" result="BackgroundImageFix"/>
      <feColorMatrix in="SourceAlpha" result="hardAlpha" values="0 0 0 0 0 0 0 0 0 0 0 0 0 0 0 0 0 0 127 0"/>
      <feOffset dy=".61"/>
      <feGaussianBlur stdDeviation=".31"/>
      <feColorMatrix values="0 0 0 0 0 0 0 0 0 0 0 0 0 0 0 0 0 0 0.25 0"/>
      <feBlend in2="BackgroundImageFix" result="effect1_dropShadow_2_2253"/>
      <feColorMatrix in="SourceAlpha" result="hardAlpha" values="0 0 0 0 0 0 0 0 0 0 0 0 0 0 0 0 0 0 127 0"/>
      <feOffset dy="-3.97"/>
      <feGaussianBlur stdDeviation="4.88"/>
      <feColorMatrix values="0 0 0 0 0.0627451 0 0 0 0 0.256 0 0 0 0 0.941176 0 0 0 1 0"/>
      <feBlend in2="effect1_dropShadow_2_2253" result="effect2_dropShadow_2_2253"/>
      <feBlend in="SourceGraphic" in2="effect2_dropShadow_2_2253" result="shape"/>
      <feColorMatrix in="SourceAlpha" result="hardAlpha" values="0 0 0 0 0 0 0 0 0 0 0 0 0 0 0 0 0 0 127 0"/>
      <feOffset dy=".61"/>
      <feGaussianBlur stdDeviation=".31"/>
      <feComposite in2="hardAlpha" k2="-1" k3="1" operator="arithmetic"/>
      <feColorMatrix values="0 0 0 0 0 0 0 0 0 0 0 0 0 0 0 0 0 0 0.25 0"/>
      <feBlend in2="shape" result="effect3_innerShadow_2_2253"/>
      <feColorMatrix in="SourceAlpha" result="hardAlpha" values="0 0 0 0 0 0 0 0 0 0 0 0 0 0 0 0 0 0 127 0"/>
      <feOffset dy="-1.83"/>
      <feGaussianBlur stdDeviation="1.53"/>
      <feComposite in2="hardAlpha" k2="-1" k3="1" operator="arithmetic"/>
      <feColorMatrix values="0 0 0 0 0 0 0 0 0 0 0 0 0 0 0 0 0 0 0.25 0"/>
      <feBlend in2="effect3_innerShadow_2_2253" result="effect4_innerShadow_2_2253"/>
      <feColorMatrix in="SourceAlpha" result="hardAlpha" values="0 0 0 0 0 0 0 0 0 0 0 0 0 0 0 0 0 0 127 0"/>
      <feOffset dy="-.46"/>
      <feGaussianBlur stdDeviation=".31"/>
      <feComposite in2="hardAlpha" k2="-1" k3="1" operator="arithmetic"/>
      <feColorMatrix values="0 0 0 0 0 0 0 0 0 0 0 0 0 0 0 0 0 0 0.25 0"/>
      <feBlend in2="effect4_innerShadow_2_2253" result="effect5_innerShadow_2_2253"/>
      <feColorMatrix in="SourceAlpha" result="hardAlpha" values="0 0 0 0 0 0 0 0 0 0 0 0 0 0 0 0 0 0 127 0"/>
      <feOffset dx="-1.37" dy="-1.68"/>
      <feGaussianBlur stdDeviation="4.88"/>
      <feComposite in2="hardAlpha" k2="-1" k3="1" operator="arithmetic"/>
      <feColorMatrix values="0 0 0 0 0.0941176 0 0 0 0 0.466667 0 0 0 0 0.94902 0 0 0 0.62 0"/>
      <feBlend in2="effect5_innerShadow_2_2253" result="effect6_innerShadow_2_2253"/>
    </filter>
    <linearGradient id="paint0_linear_2_2253" x1="48" x2="48" y1="15" y2="77.25" gradientUnits="userSpaceOnUse">
      <stop stop-color="#0E74F7"/>
      <stop offset=".89" stop-color="#0F5CF0"/>
      <stop offset="1" stop-color="#053DEC"/>
    </linearGradient>
    <linearGradient id="paint1_linear_2_2253" x1="48" x2="48" y1="15" y2="77.25" gradientUnits="userSpaceOnUse">
      <stop stop-color="#1877F2"/>
      <stop offset=".89" stop-color="#0F71F0"/>
      <stop offset="1" stop-color="#0066EA"/>
    </linearGradient>
    <linearGradient id="paint2_linear_2_2253" x1="48" x2="48" y1="16" y2="77.27" gradientUnits="userSpaceOnUse">
      <stop stop-color="#1877F2"/>
      <stop offset=".89" stop-color="#0F71F0"/>
      <stop offset="1" stop-color="#0066EA"/>
    </linearGradient>
  </defs>
</svg>
