<svg width="41" height="41" viewBox="0 0 41 41" fill="none" xmlns="http://www.w3.org/2000/svg">
<path fill-rule="evenodd" clip-rule="evenodd" d="M4.29535 6.00368C3.41667 6.88236 3.41667 8.29657 3.41667 11.125V29.875C3.41667 32.7034 3.41667 34.1176 4.29535 34.9963C5.17403 35.875 6.58824 35.875 9.41667 35.875H31.5833C34.4118 35.875 35.826 35.875 36.7047 34.9963C37.5833 34.1176 37.5833 32.7034 37.5833 29.875V29.0417H27.3333C26.2876 29.0417 25.7647 29.0417 25.3319 28.9445C23.8229 28.6056 22.6444 27.4271 22.3055 25.9181C22.2083 25.4853 22.2083 24.9624 22.2083 23.9167C22.2083 22.8709 22.2083 22.3481 22.3055 21.9153C22.6444 20.4062 23.8229 19.2277 25.3319 18.8889C25.7647 18.7917 26.2876 18.7917 27.3333 18.7917H37.5833V11.125C37.5833 8.29657 37.5833 6.88236 36.7047 6.00368C35.826 5.125 34.4118 5.125 31.5833 5.125H9.41667C6.58824 5.125 5.17403 5.125 4.29535 6.00368ZM11.9583 12.6667C11.4061 12.6667 10.9583 13.1144 10.9583 13.6667C10.9583 14.219 11.4061 14.6667 11.9583 14.6667H17.0833C17.6356 14.6667 18.0833 14.219 18.0833 13.6667C18.0833 13.1144 17.6356 12.6667 17.0833 12.6667H11.9583Z" fill="#6F3DDB"/>
<path d="M29.0417 23.9167H27.3333" stroke="#6F3DDB" stroke-width="2" stroke-linecap="round"/>
</svg>
