<svg width="36" height="36" viewBox="0 0 36 36" fill="none" xmlns="http://www.w3.org/2000/svg">
<path d="M16.2111 30.6056L15.9875 31.0528L16.2111 30.6056ZM19.7889 30.6056L20.0125 31.0528L19.7889 30.6056ZM19.8944 30.5528L19.6708 30.1056L19.8944 30.5528ZM21.0451 28.765L21.5437 28.8014L21.0451 28.765ZM20.8281 29.9398L21.2436 30.218L20.8281 29.9398ZM16.1056 30.5528L16.3292 30.1056L16.1056 30.5528ZM15.1719 29.9398L14.7564 30.218L15.1719 29.9398ZM12.8484 22.3807L13.135 21.971L12.8484 22.3807ZM13.3519 22.7788L12.9647 23.0952L13.3519 22.7788ZM23.1516 22.3807L23.4381 22.7905L23.1516 22.3807ZM22.4012 23.2529L21.9425 23.0538L22.4012 23.2529ZM22.6481 22.7788L22.2609 22.4625L22.6481 22.7788ZM26.5 15C26.5 17.8845 25.0637 20.4335 22.865 21.971L23.4381 22.7905C25.8929 21.074 27.5 18.2247 27.5 15H26.5ZM18 6.5C22.6944 6.5 26.5 10.3056 26.5 15H27.5C27.5 9.75329 23.2467 5.5 18 5.5V6.5ZM9.5 15C9.5 10.3056 13.3056 6.5 18 6.5V5.5C12.7533 5.5 8.5 9.75329 8.5 15H9.5ZM13.135 21.971C10.9363 20.4335 9.5 17.8845 9.5 15H8.5C8.5 18.2247 10.1071 21.074 12.5619 22.7905L13.135 21.971ZM15.4536 28.7286C15.3105 26.7705 14.838 24.852 14.0575 23.0538L13.1402 23.452C13.8759 25.1471 14.3214 26.9556 14.4563 28.8014L15.4536 28.7286ZM16.4348 30.1584L16.3292 30.1056L15.882 31L15.9875 31.0528L16.4348 30.1584ZM19.5652 30.1584C18.5799 30.651 17.4201 30.651 16.4348 30.1584L15.9875 31.0528C17.2544 31.6862 18.7456 31.6862 20.0125 31.0528L19.5652 30.1584ZM19.6708 30.1056L19.5652 30.1584L20.0125 31.0528L20.118 31L19.6708 30.1056ZM21.9425 23.0538C21.162 24.852 20.6895 26.7705 20.5464 28.7286L21.5437 28.8014C21.6786 26.9556 22.1241 25.1471 22.8598 23.452L21.9425 23.0538ZM20.118 31C20.3719 30.8731 20.593 30.7631 20.7669 30.6549C20.9482 30.5421 21.1154 30.4094 21.2436 30.218L20.4127 29.6616C20.3937 29.6899 20.3562 29.7326 20.2386 29.8058C20.1134 29.8837 19.9413 29.9703 19.6708 30.1056L20.118 31ZM20.5464 28.7286C20.5225 29.0558 20.5064 29.2691 20.4807 29.4293C20.4557 29.5845 20.4286 29.6378 20.4127 29.6616L21.2436 30.218C21.3748 30.022 21.4329 29.8062 21.468 29.5881C21.5023 29.3751 21.5211 29.1109 21.5437 28.8014L20.5464 28.7286ZM14.4563 28.8014C14.4789 29.1109 14.4977 29.3751 14.532 29.5881C14.5671 29.8062 14.6252 30.022 14.7564 30.218L15.5873 29.6616C15.5714 29.6378 15.5443 29.5845 15.5193 29.4293C15.4936 29.2691 15.4775 29.0558 15.4536 28.7286L14.4563 28.8014ZM16.3292 30.1056C16.0587 29.9703 15.8866 29.8837 15.7614 29.8058C15.6438 29.7326 15.6063 29.6899 15.5873 29.6616L14.7564 30.218C14.8846 30.4094 15.0518 30.5421 15.2331 30.6549C15.407 30.7631 15.6281 30.8731 15.882 31L16.3292 30.1056ZM12.5619 22.7905C12.8682 23.0047 12.9321 23.0553 12.9647 23.0952L13.7391 22.4625C13.5963 22.2877 13.383 22.1445 13.135 21.971L12.5619 22.7905ZM14.0575 23.0538C13.9611 22.8319 13.8804 22.6354 13.7391 22.4625L12.9647 23.0952C12.9989 23.137 13.0242 23.1849 13.1402 23.452L14.0575 23.0538ZM22.865 21.971C22.617 22.1445 22.4037 22.2877 22.2609 22.4625L23.0353 23.0952C23.0679 23.0553 23.1318 23.0047 23.4381 22.7905L22.865 21.971ZM22.8598 23.452C22.9758 23.1849 23.0011 23.137 23.0353 23.0952L22.2609 22.4625C22.1196 22.6354 22.0389 22.8319 21.9425 23.0538L22.8598 23.452Z" fill="#D5D5D5"/>
<path d="M21.75 24.75V24.75C19.3427 25.7129 16.6573 25.7129 14.25 24.75V24.75" stroke="#D5D5D5"/>
</svg>
