<svg xmlns="http://www.w3.org/2000/svg" fill="none" viewBox="0 0 24 24">
  <path fill="url(#paint0_linear_167_875)" d="M10.5 20.9C6.25 20.15 3 16.45 3 12c0-4.95 4.05-9 9-9s9 4.05 9 9c0 4.45-3.25 8.15-7.5 8.9l-.5-.4h-2l-.5.4z"/>
  <path fill="#fff" d="M15.5 14.5l.4-2.5h-2.4v-1.75c0-.7.25-1.25 1.35-1.25H16V6.7c-.65-.1-1.35-.2-2-.2-2.05 0-3.5 1.25-3.5 3.5v2H8.25v2.5h2.25v6.35a7.631 7.631 0 003 0V14.5h2z"/>
  <defs>
    <linearGradient id="paint0_linear_167_875" x1="12" x2="12" y1="20.38" y2="3" gradientUnits="userSpaceOnUse">
      <stop stop-color="#0062E0"/>
      <stop offset="1" stop-color="#19AFFF"/>
    </linearGradient>
  </defs>
</svg>
