<svg xmlns="http://www.w3.org/2000/svg" fill="none" viewBox="0 0 494 500">
  <path fill="url(#paint0_radial_3_194)" fill-rule="evenodd" d="M0 250c0 222.014.052 250 .469 250 .413 0 .469-3.628.469-30.781v-30.781H62.5v30.781c0 27.153.055 30.781.469 30.781.413 0 .468-3.628.468-30.781v-30.781H125v30.781c0 27.153.055 30.781.469 30.781.413 0 .469-3.628.469-30.781v-30.781H187.5v30.781c0 27.153.055 30.781.469 30.781.413 0 .469-3.628.469-30.781v-30.781H250v30.781c0 27.153.055 30.781.469 30.781.413 0 .469-3.628.469-30.781v-30.781H312.5v30.781c0 27.153.055 30.781.469 30.781.413 0 .469-3.628.469-30.781v-30.781H375v30.781c0 27.153.055 30.781.469 30.781.413 0 .469-3.628.469-30.781v-30.781H437.5v30.781c0 27.153.055 30.781.469 30.781.413 0 .469-3.628.469-30.781v-30.781h30.781c27.153 0 30.781-.056 30.781-.469 0-.414-3.628-.469-30.781-.469h-30.781v-61.562h30.781c27.153 0 30.781-.056 30.781-.469 0-.414-3.628-.469-30.781-.469h-30.781v-61.562h30.781c27.153 0 30.781-.056 30.781-.469 0-.414-3.628-.469-30.781-.469h-30.781v-61.562h30.781c27.153 0 30.781-.056 30.781-.469 0-.414-3.628-.469-30.781-.469h-30.781v-61.562h30.781c27.153 0 30.781-.056 30.781-.469 0-.414-3.628-.469-30.781-.469h-30.781v-61.562h30.781c27.153 0 30.781-.056 30.781-.469 0-.414-3.628-.469-30.781-.469h-30.781V63.438h30.781c27.153 0 30.781-.056 30.781-.47 0-.413-3.628-.468-30.781-.468h-30.781V.937h30.781C496.372.938 500 .882 500 .47 500 .053 472.014 0 250 0H0v250zM62.5 31.719V62.5H.937V.937H62.5V31.72zm62.5 0V62.5H63.438V.937H125V31.72zm62.5 0V62.5h-61.562V.937H187.5V31.72zm62.5 0V62.5h-61.562V.937H250V31.72zm62.5 0V62.5h-61.562V.937H312.5V31.72zm62.5 0V62.5h-61.562V.937H375V31.72zm62.5 0V62.5h-61.562V.937H437.5V31.72zm-375 62.5V125H.937V63.438H62.5v30.78zm62.5 0V125H63.438V63.438H125v30.78zm62.5 0V125h-61.562V63.438H187.5v30.78zm62.5 0V125h-61.562V63.438H250v30.78zm62.5 0V125h-61.562V63.438H312.5v30.78zm62.5 0V125h-61.562V63.438H375v30.78zm62.5 0V125h-61.562V63.438H437.5v30.78zm-375 62.5V187.5H.937v-61.562H62.5v30.781zm62.5 0V187.5H63.438v-61.562H125v30.781zm62.5 0V187.5h-61.562v-61.562H187.5v30.781zm62.5 0V187.5h-61.562v-61.562H250v30.781zm62.5 0V187.5h-61.562v-61.562H312.5v30.781zm62.5 0V187.5h-61.562v-61.562H375v30.781zm62.5 0V187.5h-61.562v-61.562H437.5v30.781zm-375 62.5V250H.937v-61.562H62.5v30.781zm62.5 0V250H63.438v-61.562H125v30.781zm62.5 0V250h-61.562v-61.562H187.5v30.781zm62.5 0V250h-61.562v-61.562H250v30.781zm62.5 0V250h-61.562v-61.562H312.5v30.781zm62.5 0V250h-61.562v-61.562H375v30.781zm62.5 0V250h-61.562v-61.562H437.5v30.781zm-375 62.5V312.5H.937v-61.562H62.5v30.781zm62.5 0V312.5H63.438v-61.562H125v30.781zm62.5 0V312.5h-61.562v-61.562H187.5v30.781zm62.5 0V312.5h-61.562v-61.562H250v30.781zm62.5 0V312.5h-61.562v-61.562H312.5v30.781zm62.5 0V312.5h-61.562v-61.562H375v30.781zm62.5 0V312.5h-61.562v-61.562H437.5v30.781zm-375 62.5V375H.937v-61.562H62.5v30.781zm62.5 0V375H63.438v-61.562H125v30.781zm62.5 0V375h-61.562v-61.562H187.5v30.781zm62.5 0V375h-61.562v-61.562H250v30.781zm62.5 0V375h-61.562v-61.562H312.5v30.781zm62.5 0V375h-61.562v-61.562H375v30.781zm62.5 0V375h-61.562v-61.562H437.5v30.781zm-375 62.5V437.5H.937v-61.562H62.5v30.781zm62.5 0V437.5H63.438v-61.562H125v30.781zm62.5 0V437.5h-61.562v-61.562H187.5v30.781zm62.5 0V437.5h-61.562v-61.562H250v30.781zm62.5 0V437.5h-61.562v-61.562H312.5v30.781zm62.5 0V437.5h-61.562v-61.562H375v30.781zm62.5 0V437.5h-61.562v-61.562H437.5v30.781z" clip-rule="evenodd" opacity=".5"/>
  <defs>
    <radialGradient id="paint0_radial_3_194" cx="0" cy="0" r="1" gradientTransform="rotate(90 0 250) scale(250)" gradientUnits="userSpaceOnUse">
      <stop stop-color="#fff"/>
      <stop offset="1" stop-opacity="0"/>
    </radialGradient>
  </defs>
</svg>
