<svg xmlns="http://www.w3.org/2000/svg" fill="none" viewBox="0 0 107 26">
  <path fill="#fff" d="M.48.8v3.84h5.76V.8H.48zm0 4.8V20h5.76V5.6H.48zm18.439-.24c-2.232 0-4.44.672-5.952 2.208V5.6h-5.76V26h5.76v-7.968c1.512 1.536 3.72 2.208 5.952 2.208 3.72 0 7.872-1.632 7.872-7.44 0-5.808-4.152-7.44-7.872-7.44zm-1.92 10.08c-2.568 0-4.032-.528-4.032-2.64s1.464-2.64 4.032-2.64 4.032.528 4.032 2.64-1.464 2.64-4.032 2.64zm20.056 4.8c6.12 0 9.792-2.112 9.792-7.44s-3.672-7.44-9.792-7.44c-6.12 0-9.792 2.112-9.792 7.44s3.672 7.44 9.792 7.44zm0-4.8c-2.568 0-4.032-.528-4.032-2.64s1.464-2.64 4.032-2.64 4.032.528 4.032 2.64-1.464 2.64-4.032 2.64zm10.037-.408c0 4.512 4.8 5.208 10.248 5.208 5.448 0 9.288-.696 9.288-5.088 0-3.768-3.624-4.104-9.288-4.392-3.648-.192-4.248-.168-4.248-.768 0-.552.84-.552 3.768-.552 2.568 0 3.528 0 3.528.768h5.76c0-4.152-3.72-4.848-9.048-4.848-5.328 0-9.768.696-9.768 4.8 0 3.672 2.904 4.176 9.528 4.44 3.456.144 4.008.072 4.008.792 0 .624-.552.768-3.768.768-3.48 0-4.248-.312-4.248-1.128h-5.76zm34.09-4.632V5.6h-5.88V1.76l-5.76 1.44v2.4h-2.904v4.8h2.904v5.352c0 3.12 2.208 4.488 6.672 4.488 1.896 0 3.6-.12 4.968-.36V15.2c-1.656.24-2.376.24-3.672.24-1.68 0-2.208-.696-2.208-2.064V10.4h5.88zm.48 9.6h8.16l4.224-4.8L98.27 20h8.16l-7.944-8.4 7.944-8.4h-8.16L94.046 8l-4.224-4.8h-8.16l7.944 8.4-7.944 8.4z"/>
</svg>
