<svg xmlns="http://www.w3.org/2000/svg" fill="none" viewBox="0 0 51 22">
  <path fill="#000" fill-rule="evenodd" d="M9.454 3.034c-.587.718-1.527 1.285-2.467 1.204-.118-.971.342-2.003.88-2.64C8.456.857 9.485.331 10.317.291c.098 1.012-.284 2.003-.862 2.742zm.852 1.396c-.828-.049-1.584.258-2.194.506-.393.159-.726.294-.979.294-.284 0-.63-.142-1.019-.302-.51-.21-1.092-.448-1.703-.437-1.4.02-2.703.84-3.418 2.145-1.468 2.611-.381 6.477 1.038 8.602.696 1.052 1.528 2.206 2.625 2.165.482-.019.83-.17 1.189-.328.413-.182.843-.37 1.514-.37.647 0 1.058.183 1.452.36.375.167.735.328 1.27.318 1.136-.02 1.85-1.052 2.546-2.105a9.393 9.393 0 001.13-2.399l.006-.02-.027-.013c-.25-.118-2.168-1.025-2.186-3.457-.019-2.041 1.52-3.076 1.763-3.238a.72.72 0 00.029-.02c-.98-1.498-2.507-1.66-3.036-1.7zm7.864 12.842V1.496h5.728c2.958 0 5.024 2.105 5.024 5.18 0 3.077-2.106 5.202-5.102 5.202h-3.28v5.394h-2.37zM20.54 3.56h2.731c2.057 0 3.232 1.134 3.232 3.127 0 1.993-1.175 3.137-3.241 3.137h-2.723V3.56zm16.206 11.82c-.627 1.234-2.007 2.013-3.496 2.013-2.203 0-3.74-1.356-3.74-3.4 0-2.024 1.488-3.188 4.24-3.36l2.957-.182v-.87c0-1.285-.813-1.983-2.262-1.983-1.195 0-2.066.637-2.243 1.609h-2.134c.068-2.044 1.929-3.532 4.445-3.532 2.713 0 4.476 1.467 4.476 3.744v7.853h-2.194v-1.893h-.049zm-2.86.141c-1.263 0-2.066-.627-2.066-1.589 0-.991.774-1.568 2.253-1.66l2.634-.171v.89c0 1.478-1.215 2.53-2.82 2.53zm12.378 2.368c-.95 2.762-2.037 3.673-4.348 3.673-.176 0-.763-.02-.9-.06v-1.893c.147.02.509.04.695.04 1.048 0 1.635-.455 1.998-1.639l.215-.698-4.015-11.485h2.477l2.791 9.32h.05l2.79-9.32h2.41l-4.163 12.062z" clip-rule="evenodd"/>
</svg>
