<svg xmlns="http://www.w3.org/2000/svg" fill="none" viewBox="0 0 50 22">
  <path fill="#3C4043" fill-rule="evenodd" d="M23.06 16.703v-5.992h3.119c1.277 0 2.356-.424 3.235-1.262l.211-.212a4.288 4.288 0 00-.21-6.039 4.47 4.47 0 00-3.236-1.285h-5.006v14.79h1.887zm0-7.808V3.729h3.166c.68 0 1.325.26 1.806.731a2.613 2.613 0 01.058 3.668c-.48.507-1.16.79-1.864.767h-3.165zm15.37-1.521c-.81-.744-1.911-1.121-3.307-1.121-1.793 0-3.141.66-4.032 1.97l1.664 1.05c.61-.897 1.442-1.345 2.497-1.345.669 0 1.313.248 1.817.696a2.22 2.22 0 01.774 1.686v.437c-.727-.401-1.641-.614-2.767-.614-1.313 0-2.367.307-3.153.932-.785.625-1.184 1.45-1.184 2.5a3.136 3.136 0 001.114 2.477c.738.66 1.676.991 2.778.991 1.301 0 2.333-.578 3.118-1.734h.082v1.404h1.806v-6.24c0-1.309-.399-2.346-1.208-3.09zm-5.123 7.465a1.533 1.533 0 01-.622-1.238c0-.554.258-1.014.762-1.38.516-.366 1.161-.554 1.923-.554 1.056-.012 1.876.224 2.463.696 0 .802-.317 1.498-.938 2.087a2.99 2.99 0 01-2.123.885 2.296 2.296 0 01-1.465-.496zm10.386 6.31L50 6.583h-2.05l-2.92 7.266h-.035l-2.99-7.266h-2.05l4.138 9.471-2.345 5.095h1.946z" clip-rule="evenodd"/>
  <path fill="#4285F4" d="M16.544 9.414c0-.578-.047-1.156-.14-1.722h-7.96v3.267h4.56a3.934 3.934 0 01-1.688 2.583v2.123h2.72c1.594-1.474 2.508-3.656 2.508-6.25z"/>
  <path fill="#34A853" d="M8.444 17.717c2.274 0 4.197-.754 5.592-2.052l-2.72-2.123c-.762.52-1.735.814-2.872.814-2.204 0-4.068-1.498-4.736-3.503H.906v2.194a8.426 8.426 0 007.538 4.67z"/>
  <path fill="#FBBC04" d="M3.708 10.853a5.153 5.153 0 010-3.255V5.416H.906a8.465 8.465 0 000 7.619l2.802-2.182z"/>
  <path fill="#EA4335" d="M8.444 4.095a4.528 4.528 0 013.236 1.274l2.414-2.43A8.12 8.12 0 008.444.733 8.437 8.437 0 00.906 5.416L3.708 7.61c.668-2.017 2.532-3.515 4.736-3.515z"/>
</svg>
