<svg xmlns="http://www.w3.org/2000/svg" fill="none" viewBox="0 0 14 14">
  <g fill="#2BC155" clip-path="url(#clip0_28_916)">
    <path d="M8.616 12.178a.63.63 0 01.294-.838 5.202 5.202 0 002.12-1.873c.534-.83.817-1.794.817-2.788A5.173 5.173 0 006.68 1.512a5.173 5.173 0 00-4.352 7.957 5.187 5.187 0 002.12 1.874.629.629 0 01-.545 1.131A6.414 6.414 0 01.257 6.68c0-1.715.668-3.329 1.882-4.54A6.371 6.371 0 016.679.257c1.716 0 3.33.668 4.541 1.882a6.376 6.376 0 011.882 4.54 6.395 6.395 0 01-1.016 3.467 6.462 6.462 0 01-2.632 2.328.63.63 0 01-.838-.296z"/>
    <path d="M9.12 7.013a.625.625 0 01.183.444c0 .16-.06.321-.183.444L7.542 9.48a1.215 1.215 0 01-1.72 0l-1.58-1.579a.627.627 0 11.889-.888l.925.926V4.374a.627.627 0 011.255 0v3.568l.925-.926a.623.623 0 01.883-.003z"/>
  </g>
  <defs>
    <clipPath id="clip0_28_916">
      <path fill="#fff" d="M0 0h12.84v12.84H0z" transform="matrix(0 1 1 0 .257 .257)"/>
    </clipPath>
  </defs>
</svg>
