<svg xmlns="http://www.w3.org/2000/svg" fill="none" viewBox="0 0 14 14">
  <g fill="#EF9B9B" clip-path="url(#clip0_28_1233)">
    <path d="M4.743 1.489a.63.63 0 01-.294.837A5.203 5.203 0 002.33 4.2a5.139 5.139 0 00-.817 2.788 5.173 5.173 0 005.167 5.167 5.173 5.173 0 004.353-7.957 5.187 5.187 0 00-2.12-1.874.628.628 0 01.545-1.131 6.414 6.414 0 013.645 5.795 6.371 6.371 0 01-1.882 4.54 6.371 6.371 0 01-4.54 1.882 6.371 6.371 0 01-4.541-1.882 6.376 6.376 0 01-1.882-4.54 6.4 6.4 0 011.016-3.467 6.463 6.463 0 012.632-2.328.63.63 0 01.838.296z"/>
    <path d="M4.239 6.654a.625.625 0 01-.184-.444c0-.16.06-.321.184-.444l1.578-1.578a1.215 1.215 0 011.72 0l1.578 1.578a.627.627 0 11-.888.888l-.925-.926v3.565a.627.627 0 01-1.255 0V5.725l-.925.926a.623.623 0 01-.883.003z"/>
  </g>
  <defs>
    <clipPath id="clip0_28_1233">
      <path fill="#fff" d="M0 0h12.84v12.84H0z" transform="matrix(0 -1 -1 0 13.102 13.41)"/>
    </clipPath>
  </defs>
</svg>
