<svg xmlns="http://www.w3.org/2000/svg" fill="none" viewBox="0 0 46 28">
  <path fill="#ED0006" d="M27.648 13.9c0 7.56-6.11 13.69-13.647 13.69C6.463 27.59.353 21.46.353 13.9.353 6.337 6.463.207 14 .207s13.647 6.13 13.647 13.691z"/>
  <path fill="#0099DF" d="M45.353 13.9c0 7.56-6.11 13.69-13.648 13.69-7.537 0-13.647-6.13-13.647-13.69 0-7.562 6.11-13.692 13.647-13.692 7.538 0 13.648 6.13 13.648 13.691z"/>
  <path fill="#6C6BBD" fill-rule="evenodd" d="M22.853 3.479a13.678 13.678 0 014.795 10.42c0 4.173-1.86 7.91-4.795 10.42a13.678 13.678 0 01-4.795-10.42c0-4.172 1.86-7.909 4.795-10.42z" clip-rule="evenodd"/>
</svg>
