<svg xmlns="http://www.w3.org/2000/svg" fill="none" viewBox="0 0 47 28">
  <path fill="#ED0006" fill-rule="evenodd" d="M23.369 24.36a14.075 14.075 0 01-9.056 3.268c-7.71 0-13.96-6.125-13.96-13.68C.353 6.395 6.603.27 14.313.27a14.08 14.08 0 019.056 3.267A14.075 14.075 0 0132.424.27c7.71 0 13.96 6.124 13.96 13.679 0 7.554-6.25 13.679-13.96 13.679a14.07 14.07 0 01-9.055-3.268z" clip-rule="evenodd"/>
  <path fill="#F9A000" fill-rule="evenodd" d="M23.369 24.36c3.001-2.509 4.904-6.242 4.904-10.411 0-4.17-1.903-7.903-4.904-10.412A14.075 14.075 0 0132.424.27c7.71 0 13.96 6.124 13.96 13.679 0 7.554-6.25 13.679-13.96 13.679a14.07 14.07 0 01-9.055-3.268z" clip-rule="evenodd"/>
  <path fill="#FF5E00" fill-rule="evenodd" d="M23.369 24.36c3.001-2.509 4.904-6.242 4.904-10.411 0-4.17-1.903-7.903-4.904-10.412-3.002 2.51-4.905 6.243-4.905 10.412 0 4.169 1.903 7.902 4.905 10.411z" clip-rule="evenodd"/>
</svg>
