<svg xmlns="http://www.w3.org/2000/svg" fill="none" viewBox="0 0 23 28">
  <path fill="#28356A" fill-rule="evenodd" d="M7.088 26.665l.455-2.958-1.013-.025H1.696L5.056 1.85a.29.29 0 01.093-.172.27.27 0 01.18-.067h8.15c2.707 0 4.574.577 5.549 1.716.457.534.748 1.093.889 1.707.148.645.15 1.416.006 2.356l-.01.068v.602l.457.266c.384.209.69.448.925.723.39.457.644 1.037.75 1.726.111.708.075 1.55-.106 2.505-.209 1.097-.546 2.053-1.001 2.834a5.776 5.776 0 01-1.586 1.782 6.359 6.359 0 01-2.136.988c-.787.21-1.685.316-2.67.316h-.634c-.453 0-.894.167-1.24.467a1.98 1.98 0 00-.646 1.183l-.048.266-.803 5.215-.037.192c-.01.06-.026.09-.05.111a.132.132 0 01-.083.031H7.088z" clip-rule="evenodd"/>
  <path fill="#298FC2" fill-rule="evenodd" d="M20.803 7.527c-.024.16-.052.323-.083.49-1.075 5.657-4.753 7.611-9.45 7.611H8.88a1.17 1.17 0 00-1.148 1.008L6.16 26.851a.622.622 0 00.604.725h4.241c.502 0 .93-.374 1.008-.882l.042-.22.799-5.195.05-.285c.079-.51.507-.883 1.009-.883h.634c4.11 0 7.326-1.71 8.267-6.659.392-2.067.19-3.793-.85-5.007a4.064 4.064 0 00-1.161-.918z" clip-rule="evenodd"/>
  <path fill="#22284F" fill-rule="evenodd" d="M19.678 7.068a8.277 8.277 0 00-1.046-.238 12.978 12.978 0 00-2.108-.157h-6.388a.993.993 0 00-.44.102 1.042 1.042 0 00-.567.781l-1.36 8.823-.039.257a1.17 1.17 0 011.148-1.008h2.392c4.697 0 8.374-1.955 9.449-7.61.032-.168.06-.331.083-.49a5.641 5.641 0 00-.883-.383 8.18 8.18 0 00-.241-.077z" clip-rule="evenodd"/>
  <path fill="#28356A" fill-rule="evenodd" d="M9.129 7.556c.053-.35.272-.636.567-.78a.993.993 0 01.44-.103h6.389c.756 0 1.463.051 2.108.158a8.27 8.27 0 011.287.314c.317.108.612.236.884.383.32-2.09-.003-3.514-1.106-4.803-1.216-1.419-3.41-2.026-6.217-2.026H5.33c-.574 0-1.063.427-1.152 1.009L.783 23.765a.712.712 0 00.691.83h5.032L9.13 7.556z" clip-rule="evenodd"/>
</svg>
