<svg xmlns="http://www.w3.org/2000/svg" fill="none" viewBox="0 0 41 41">
  <path fill="#83B78E" d="M13.667 6.833l.707-.707-.707-.707-.707.707.707.707zm19.791 8.542a1 1 0 10-2 0h2zm-10.543-.707l-8.541-8.542L12.96 7.54l8.541 8.542 1.414-1.414zM12.96 6.126l-8.542 8.542 1.414 1.414 8.542-8.542-1.414-1.414zm-.293.707v17.938h2V6.833h-2zm20.791 17.938v-9.396h-2v9.396h2zM23.063 35.167c5.741 0 10.395-4.655 10.395-10.396h-2a8.396 8.396 0 01-8.395 8.396v2zM12.666 24.77c0 5.741 4.654 10.396 10.396 10.396v-2a8.396 8.396 0 01-8.396-8.396h-2z"/>
</svg>
