<svg xmlns="http://www.w3.org/2000/svg" fill="none" viewBox="0 0 41 41">
  <path fill="#EF9B9B" d="M27.333 34.167l-.707.707.707.707.708-.707-.708-.707zM7.542 25.625a1 1 0 102 0h-2zm10.543.707l8.541 8.542 1.415-1.414-8.542-8.542-1.414 1.414zm9.956 8.542l8.541-8.542-1.414-1.414-8.542 8.542 1.415 1.414zm.292-.707V16.229h-2v17.938h2zM7.542 16.229v9.396h2V16.23h-2zM17.938 5.833c-5.742 0-10.396 4.655-10.396 10.396h2a8.396 8.396 0 018.396-8.396v-2zM28.332 16.23c0-5.741-4.654-10.396-10.395-10.396v2a8.396 8.396 0 018.395 8.396h2z"/>
</svg>
