<svg xmlns="http://www.w3.org/2000/svg" fill="none" viewBox="0 0 50 17">
  <path fill="#fff" fill-rule="evenodd" d="M13.133 16.377h-4.24L5.712 3.993c-.152-.57-.472-1.073-.944-1.31C3.593 2.085 2.297 1.61.882 1.37V.895h6.832c.943 0 1.65.716 1.767 1.548l1.65 8.933L15.37.895h4.123l-6.36 15.482zm8.717 0h-4.005L21.143.895h4.005L21.85 16.377zm8.48-11.193c.117-.834.824-1.31 1.649-1.31 1.296-.12 2.709.119 3.887.713l.707-3.333a9.956 9.956 0 00-3.651-.716c-3.887 0-6.716 2.144-6.716 5.12 0 2.265 2.004 3.454 3.418 4.17 1.53.714 2.12 1.191 2.002 1.905 0 1.071-1.18 1.548-2.356 1.548-1.414 0-2.828-.357-4.122-.953l-.707 3.335c1.414.595 2.944.834 4.358.834 4.359.118 7.067-2.025 7.067-5.24 0-4.05-5.537-4.288-5.537-6.073zm19.552 11.193L46.702.895h-3.415c-.707 0-1.414.476-1.65 1.19l-5.889 14.292h4.123l.823-2.262h5.066l.471 2.262h3.651zM43.876 5.064l1.176 5.835h-3.297l2.121-5.835z" clip-rule="evenodd"/>
</svg>
