<svg xmlns="http://www.w3.org/2000/svg" fill="none" viewBox="0 0 35 31">
  <path fill="#0066EA" fill-rule="evenodd" d="M1.295 1.004C.417 1.882.417 3.297.417 6.125v18.75c0 2.828 0 4.243.878 5.121.879.879 2.293.879 5.122.879h22.166c2.829 0 4.243 0 5.122-.879.878-.878.878-2.293.878-5.121v-.833h-10.25c-1.045 0-1.568 0-2.001-.098a4 4 0 01-3.027-3.026c-.097-.433-.097-.956-.097-2.001 0-1.046 0-1.569.098-2.002a4 4 0 013.026-3.026c.433-.097.956-.097 2.001-.097h10.25V6.125c0-2.828 0-4.243-.878-5.121-.879-.879-2.293-.879-5.122-.879H6.417c-2.829 0-4.243 0-5.122.879zm7.663 6.663a1 1 0 100 2h5.125a1 1 0 100-2H8.958z" clip-rule="evenodd"/>
</svg>
