<svg xmlns="http://www.w3.org/2000/svg" fill="none" viewBox="0 0 29 29">
  <path stroke="#666" d="M8.037 10.985a6.494 6.494 0 016.455-5.777v0c3.31 0 6.09 2.488 6.455 5.777l.292 2.635c.035.314.053.47.076.626.14.929.443 1.826.895 2.65.075.138.156.273.319.544l.672 1.12c.747 1.245 1.12 1.867.892 2.35a.989.989 0 01-.073.13c-.297.444-1.023.444-2.474.444H7.438c-1.452 0-2.178 0-2.475-.445a.999.999 0 01-.072-.128c-.229-.484.145-1.106.892-2.35l.672-1.12c.162-.272.244-.407.319-.544a8 8 0 00.895-2.651c.023-.155.04-.312.075-.626l.293-2.635z"/>
  <path stroke="#666" stroke-linecap="round" d="M11.123 21.956c.199.865.636 1.63 1.246 2.175.609.545 1.355.84 2.123.84.767 0 1.514-.295 2.123-.84.61-.546 1.047-1.31 1.246-2.175"/>
</svg>
