<svg width="80" height="80" viewBox="0 0 80 80" fill="none" xmlns="http://www.w3.org/2000/svg">
<path d="M40 80C62.0914 80 80 62.0914 80 40C80 17.9086 62.0914 0 40 0C17.9086 0 0 17.9086 0 40C0 62.0914 17.9086 80 40 80Z" fill="url(#paint0_linear_48_887)"/>
<path fill-rule="evenodd" clip-rule="evenodd" d="M18.1063 39.5777C29.7671 34.4973 37.5428 31.148 41.4334 29.5298C52.5418 24.9094 54.8501 24.1068 56.3545 24.0803C56.6854 24.0744 57.4253 24.1565 57.9046 24.5453C58.3092 24.8737 58.4206 25.3173 58.4738 25.6286C58.5271 25.9399 58.5935 26.6491 58.5407 27.2032C57.9388 33.5282 55.334 48.8771 54.0089 55.9612C53.4482 58.9587 52.3441 59.9637 51.2753 60.0621C48.9524 60.2759 47.1885 58.527 44.9387 57.0522C41.4182 54.7445 39.4293 53.3079 36.012 51.056C32.0628 48.4535 34.6229 47.0231 36.8736 44.6855C37.4626 44.0737 47.6972 34.7645 47.8953 33.92C47.9201 33.8144 47.9431 33.4207 47.7092 33.2128C47.4753 33.0049 47.1301 33.076 46.881 33.1326C46.5279 33.2127 40.9039 36.93 30.0088 44.2845C28.4124 45.3807 26.9665 45.9148 25.671 45.8868C24.2428 45.8559 21.4955 45.0792 19.4531 44.4154C16.9481 43.6011 14.9572 43.1706 15.1306 41.7877C15.2209 41.0674 16.2128 40.3307 18.1063 39.5777Z" fill="white"/>
<defs>
<linearGradient id="paint0_linear_48_887" x1="40" y1="0" x2="40" y2="79.4067" gradientUnits="userSpaceOnUse">
<stop stop-color="#2CA4E0"/>
<stop offset="1" stop-color="#0D83BF"/>
</linearGradient>
</defs>
</svg>
