<svg width="46" height="28" viewBox="0 0 46 28" fill="none" xmlns="http://www.w3.org/2000/svg">
<path d="M27.648 13.8992C27.648 21.4605 21.5378 27.5901 14.0005 27.5901C6.46316 27.5901 0.352943 21.4605 0.352943 13.8992C0.352943 6.33789 6.46316 0.208252 14.0005 0.208252C21.5378 0.208252 27.648 6.33789 27.648 13.8992Z" fill="#ED0006"/>
<path d="M45.3529 13.8992C45.3529 21.4605 39.2427 27.5901 31.7054 27.5901C24.1681 27.5901 18.0578 21.4605 18.0578 13.8992C18.0578 6.33789 24.1681 0.208252 31.7054 0.208252C39.2427 0.208252 45.3529 6.33789 45.3529 13.8992Z" fill="#0099DF"/>
<path fill-rule="evenodd" clip-rule="evenodd" d="M22.853 3.479C25.7874 5.99017 27.648 9.72675 27.648 13.8993C27.648 18.0718 25.7874 21.8084 22.853 24.3196C19.9186 21.8084 18.058 18.0718 18.058 13.8993C18.058 9.72675 19.9186 5.99017 22.853 3.479Z" fill="#6C6BBD"/>
</svg>
